<svg width="138" height="38" viewBox="0 0 138 38" fill="none" xmlns="http://www.w3.org/2000/svg">
<path d="M0.928 37V0.663999H7.216V16.024L6.352 15.112C6.96 13.544 7.952 12.36 9.328 11.56C10.736 10.728 12.368 10.312 14.224 10.312C16.144 10.312 17.84 10.728 19.312 11.56C20.816 12.392 21.984 13.56 22.816 15.064C23.648 16.536 24.064 18.248 24.064 20.2V37H17.776V21.688C17.776 20.536 17.552 19.544 17.104 18.712C16.656 17.88 16.032 17.24 15.232 16.792C14.464 16.312 13.552 16.072 12.496 16.072C11.472 16.072 10.56 16.312 9.76 16.792C8.96 17.24 8.336 17.88 7.888 18.712C7.44 19.544 7.216 20.536 7.216 21.688V37H0.928ZM37.3011 37.576C35.4771 37.576 33.8931 37.272 32.5491 36.664C31.2051 36.056 30.1651 35.192 29.4291 34.072C28.6931 32.92 28.3251 31.592 28.3251 30.088C28.3251 28.648 28.6451 27.368 29.2851 26.248C29.9251 25.096 30.9171 24.136 32.2611 23.368C33.6051 22.6 35.3011 22.056 37.3491 21.736L45.8931 20.344V25.144L38.5491 26.392C37.3011 26.616 36.3731 27.016 35.7651 27.592C35.1571 28.168 34.8531 28.92 34.8531 29.848C34.8531 30.744 35.1891 31.464 35.8611 32.008C36.5651 32.52 37.4291 32.776 38.4531 32.776C39.7651 32.776 40.9171 32.504 41.9091 31.96C42.9331 31.384 43.7171 30.6 44.2611 29.608C44.8371 28.616 45.1251 27.528 45.1251 26.344V19.624C45.1251 18.504 44.6771 17.576 43.7811 16.84C42.9171 16.072 41.7651 15.688 40.3251 15.688C38.9811 15.688 37.7811 16.056 36.7251 16.792C35.7011 17.496 34.9491 18.44 34.4691 19.624L29.3331 17.128C29.8451 15.752 30.6451 14.568 31.7331 13.576C32.8531 12.552 34.1651 11.752 35.6691 11.176C37.1731 10.6 38.8051 10.312 40.5651 10.312C42.7091 10.312 44.5971 10.712 46.2291 11.512C47.8611 12.28 49.1251 13.368 50.0211 14.776C50.9491 16.152 51.4131 17.768 51.4131 19.624V37H45.4611V32.536L46.8051 32.44C46.1331 33.56 45.3331 34.504 44.4051 35.272C43.4771 36.008 42.4211 36.584 41.2371 37C40.0531 37.384 38.7411 37.576 37.3011 37.576ZM57.2249 37V0.663999H63.5129V37H57.2249ZM82.0866 37.576C79.5266 37.576 77.1906 36.984 75.0786 35.8C72.9986 34.616 71.3346 33 70.0866 30.952C68.8706 28.904 68.2626 26.568 68.2626 23.944C68.2626 21.32 68.8706 18.984 70.0866 16.936C71.3346 14.888 72.9986 13.272 75.0786 12.088C77.1586 10.904 79.4946 10.312 82.0866 10.312C84.6466 10.312 86.9666 10.904 89.0466 12.088C91.1266 13.272 92.7746 14.888 93.9906 16.936C95.2386 18.952 95.8626 21.288 95.8626 23.944C95.8626 26.568 95.2386 28.904 93.9906 30.952C92.7426 33 91.0786 34.616 88.9986 35.8C86.9186 36.984 84.6146 37.576 82.0866 37.576ZM82.0866 31.816C83.4946 31.816 84.7266 31.48 85.7826 30.808C86.8706 30.136 87.7186 29.208 88.3266 28.024C88.9666 26.808 89.2866 25.448 89.2866 23.944C89.2866 22.408 88.9666 21.064 88.3266 19.912C87.7186 18.728 86.8706 17.8 85.7826 17.128C84.7266 16.424 83.4946 16.072 82.0866 16.072C80.6466 16.072 79.3826 16.424 78.2946 17.128C77.2066 17.8 76.3426 18.728 75.7026 19.912C75.0946 21.064 74.7906 22.408 74.7906 23.944C74.7906 25.448 75.0946 26.808 75.7026 28.024C76.3426 29.208 77.2066 30.136 78.2946 30.808C79.3826 31.48 80.6466 31.816 82.0866 31.816ZM108.551 37.576C106.727 37.576 105.143 37.272 103.799 36.664C102.455 36.056 101.415 35.192 100.679 34.072C99.9431 32.92 99.5751 31.592 99.5751 30.088C99.5751 28.648 99.8951 27.368 100.535 26.248C101.175 25.096 102.167 24.136 103.511 23.368C104.855 22.6 106.551 22.056 108.599 21.736L117.143 20.344V25.144L109.799 26.392C108.551 26.616 107.623 27.016 107.015 27.592C106.407 28.168 106.103 28.92 106.103 29.848C106.103 30.744 106.439 31.464 107.111 32.008C107.815 32.52 108.679 32.776 109.703 32.776C111.015 32.776 112.167 32.504 113.159 31.96C114.183 31.384 114.967 30.6 115.511 29.608C116.087 28.616 116.375 27.528 116.375 26.344V19.624C116.375 18.504 115.927 17.576 115.031 16.84C114.167 16.072 113.015 15.688 111.575 15.688C110.231 15.688 109.031 16.056 107.975 16.792C106.951 17.496 106.199 18.44 105.719 19.624L100.583 17.128C101.095 15.752 101.895 14.568 102.983 13.576C104.103 12.552 105.415 11.752 106.919 11.176C108.423 10.6 110.055 10.312 111.815 10.312C113.959 10.312 115.847 10.712 117.479 11.512C119.111 12.28 120.375 13.368 121.271 14.776C122.199 16.152 122.663 17.768 122.663 19.624V37H116.711V32.536L118.055 32.44C117.383 33.56 116.583 34.504 115.655 35.272C114.727 36.008 113.671 36.584 112.487 37C111.303 37.384 109.991 37.576 108.551 37.576ZM131.691 26.152L131.259 1.24H137.643L137.211 26.152H131.691ZM131.259 37V30.28H137.643V37H131.259Z" fill="#3182CE"/>
</svg>
