<svg width="32" height="32" viewBox="0 0 32 32" fill="none" xmlns="http://www.w3.org/2000/svg">
<g id="user-search">
<path id="Vector" d="M15.9999 18.6666C9.31988 18.6666 3.87988 23.1466 3.87988 28.6666C3.87988 29.04 4.17322 29.3333 4.54655 29.3333H27.4532C27.8266 29.3333 28.1199 29.04 28.1199 28.6666C28.1199 23.1466 22.6799 18.6666 15.9999 18.6666Z" fill="white"/>
<path id="Vector_2" d="M20.3895 12.1039L20.0484 12.6155L20.4832 13.0503L21.7589 14.326C21.9686 14.5444 21.9576 14.8805 21.7569 15.0759L21.7461 15.0865L21.7357 15.0975C21.6573 15.1802 21.5318 15.2366 21.3735 15.2366C21.2369 15.2366 21.0993 15.1851 20.9972 15.083L19.7172 13.803L19.2824 13.3682L18.7708 13.7093C17.8908 14.2959 16.8349 14.6366 15.6935 14.6366C12.601 14.6366 10.0835 12.1191 10.0835 9.02663C10.0835 5.93621 12.6123 3.41663 15.7068 3.41663C18.8003 3.41663 21.3168 5.92186 21.3168 9.02663C21.3168 10.1681 20.9761 11.2239 20.3895 12.1039Z" fill="white" stroke="white" stroke-width="1.5"/>
</g>
</svg>
